<svg width="45" height="45" viewBox="0 0 45 45" fill="none" xmlns="http://www.w3.org/2000/svg">
<path d="M22.5 3.75C12.1444 3.75 3.75 12.1444 3.75 22.5C3.75 30.8316 9.18844 37.8853 16.7062 40.3275H28.2937C35.8116 37.8853 41.25 30.8316 41.25 22.5C41.25 12.1444 32.8556 3.75 22.5 3.75Z" fill="url(#paint0_linear_308_25)"/>
<path opacity="0.05" d="M28.1344 39.3713L28.125 33.9357C28.125 33.0553 27.9187 32.1957 27.5231 31.4166C32.8115 30.3544 35.385 27.2278 35.385 21.8757C35.385 19.7616 34.7616 17.895 33.5325 16.3257C33.6262 16.0285 33.6956 15.721 33.7387 15.406C33.915 14.1225 33.7172 13.2835 33.5578 12.6085L33.5325 12.4997C33.3581 11.7535 33.149 11.221 33.1406 11.1985L33.0365 10.9341L32.9325 10.6697L32.6494 10.6397L32.3653 10.6097C32.3653 10.6097 32.1787 10.59 31.8956 10.59C31.5028 10.59 30.9206 10.6294 30.3703 10.816L30.1866 10.8778C29.4928 11.1113 28.8375 11.3325 27.9206 11.88C27.6525 12.0403 27.3591 12.2232 27.045 12.4275C25.6256 12.076 24.0984 11.8969 22.5 11.8969C20.8856 11.8969 19.3453 12.0769 17.9166 12.4322C17.5987 12.226 17.3034 12.0413 17.0334 11.88C16.1166 11.3325 15.4612 11.1122 14.7675 10.8778L14.5837 10.816C14.0353 10.6294 13.4522 10.59 13.0594 10.59C12.7762 10.59 12.5897 10.6097 12.5897 10.6097L12.3066 10.6397L12.0253 10.6688L11.9203 10.9322L11.8144 11.1975C11.805 11.2219 11.5959 11.7544 11.4216 12.5016L11.3962 12.6094C11.2369 13.2835 11.0391 14.1235 11.2153 15.406C11.2603 15.7303 11.3325 16.0482 11.4309 16.3538C10.2262 17.9157 9.61593 19.7719 9.61593 21.8757C9.61593 27.2147 12.1922 30.3394 17.4881 31.41C17.3062 31.7738 17.1647 32.1582 17.0644 32.5575C16.8797 32.6203 16.71 32.6625 16.56 32.686C16.3369 32.7197 16.1034 32.7366 15.8672 32.7366C15.224 32.7366 14.7187 32.611 14.5219 32.4938C14.2284 32.3194 13.7044 31.8122 13.1962 31.0707C12.7622 30.4378 12.0853 29.61 11.3287 29.2641C10.6744 28.965 9.98155 28.7935 9.42655 28.7935C9.29718 28.7935 9.17811 28.8028 9.07405 28.8197C8.58936 28.8966 8.18436 29.1628 7.96405 29.551C7.77374 29.8857 7.74374 30.2757 7.88155 30.6207C8.08686 31.1344 8.67936 31.5441 9.14061 31.7972C9.36749 31.9219 9.8578 32.3775 10.1437 32.8369C10.3584 33.1819 10.4578 33.4275 10.5956 33.7669C10.6772 33.9685 10.7672 34.1878 10.8891 34.4532C11.3297 35.4113 12.705 36.2569 12.8606 36.3497C13.6162 36.8025 14.8866 36.9478 15.8203 36.99L15.9356 36.9928H15.9366C16.1616 36.9928 16.4709 36.9713 16.8778 36.9263V39.376C16.8797 39.8719 16.3744 39.9844 15.7059 39.9741L16.2187 40.1466C18.1828 40.8488 20.2922 41.25 22.5 41.25C24.7078 41.25 26.8172 40.8488 28.784 40.1475L29.4431 39.9019C28.7766 39.8794 28.14 39.7707 28.1344 39.3713Z" fill="url(#paint1_linear_308_25)"/>
<path opacity="0.07" d="M28.8572 40.1222C28.4766 40.1663 27.6563 40.02 27.6563 39.3769V33.9357C27.6563 32.91 27.3488 31.9191 26.7788 31.0744C32.3241 30.1772 34.9153 27.2372 34.9153 21.8757C34.9153 19.7785 34.2722 17.9438 33.0038 16.4175C33.1322 16.0753 33.2222 15.7144 33.2738 15.3422C33.4378 14.146 33.2588 13.3866 33.1013 12.7163L33.076 12.6075C32.9091 11.8941 32.7122 11.3916 32.7038 11.371L32.5997 11.1066L32.3156 11.0766C32.3156 11.0766 32.1488 11.0588 31.8947 11.0588C31.5375 11.0588 31.0097 11.0935 30.5203 11.2603L30.3366 11.3222C29.6672 11.5482 29.0344 11.761 28.1606 12.2822C27.8494 12.4678 27.5025 12.6863 27.1285 12.9328C25.6913 12.5569 24.136 12.3657 22.5 12.3657C20.8481 12.3657 19.2797 12.5578 17.8322 12.9375C17.4544 12.6891 17.1056 12.4697 16.7925 12.2822C15.9188 11.761 15.286 11.5472 14.6166 11.3222L14.4328 11.2603C13.9444 11.0944 13.4156 11.0588 13.0585 11.0588C12.8044 11.0588 12.6375 11.0766 12.6375 11.0766L12.3544 11.1066L12.2485 11.3719C12.24 11.3925 12.0431 11.895 11.8763 12.6085L11.851 12.7172C11.6925 13.3875 11.5135 14.146 11.6785 15.3422C11.731 15.7238 11.8247 16.0932 11.9578 16.4428C10.7138 17.9616 10.0838 19.7869 10.0838 21.8757C10.0838 27.2222 12.6769 30.1613 18.2269 31.0688C17.8566 31.6219 17.5978 32.2453 17.4647 32.91C17.1553 33.0319 16.875 33.1125 16.6294 33.15C16.3828 33.1875 16.126 33.2063 15.8663 33.2063C15.2194 33.2063 14.5978 33.0853 14.2819 32.8978C13.8694 32.6532 13.291 32.041 12.8081 31.3369C12.48 30.8588 11.8266 30.0085 11.1319 29.6916C10.5366 29.4197 9.91502 29.2632 9.42471 29.2632C9.32158 29.2632 9.22783 29.2707 9.14533 29.2838C8.80221 29.3382 8.51908 29.52 8.36908 29.7844C8.24908 29.9944 8.22939 30.2372 8.31377 30.4482C8.48158 30.8682 9.10314 31.245 9.36283 31.3875C9.67689 31.56 10.2244 32.085 10.5385 32.5913C10.7738 32.97 10.8853 33.2447 11.0269 33.5916C11.1066 33.7875 11.1938 34.0013 11.3119 34.2591C11.6222 34.9332 12.5803 35.6391 13.0978 35.9494C13.8047 36.3732 15.1172 36.4913 15.8372 36.5232L15.9413 36.525C16.2216 36.525 16.6913 36.4828 17.3428 36.3985V39.3769C17.3428 40.1072 16.4138 40.1363 16.186 40.1363C16.1569 40.1363 16.6575 40.3088 16.6575 40.3088C18.4978 40.9125 20.4581 41.25 22.5 41.25C24.5419 41.25 26.5022 40.9125 28.3416 40.3097C28.3416 40.3097 28.8863 40.1185 28.8572 40.1222Z" fill="url(#paint2_linear_308_25)"/>
<path d="M34.4475 21.8756C34.4475 19.71 33.7144 17.9138 32.4628 16.5056C32.5987 16.201 32.7403 15.7922 32.8106 15.2785C32.9719 14.1066 32.7815 13.4035 32.6203 12.7153C32.459 12.0272 32.2687 11.5435 32.2687 11.5435C32.2687 11.5435 31.4044 11.4553 30.6722 11.7047C29.94 11.9541 29.31 12.1444 28.4016 12.6863C27.9769 12.9394 27.5494 13.2169 27.2109 13.4419C25.7644 13.0406 24.1734 12.8344 22.5 12.8344C20.8116 12.8344 19.2066 13.0416 17.7497 13.4456C17.4103 13.2197 16.98 12.9403 16.5525 12.6853C15.6441 12.1435 15.0141 11.9531 14.2819 11.7038C13.5497 11.4544 12.6853 11.5425 12.6853 11.5425C12.6853 11.5425 12.495 12.0263 12.3337 12.7144C12.1725 13.4025 11.9822 14.1056 12.1434 15.2775C12.2156 15.8044 12.3619 16.2206 12.5016 16.5272C11.2734 17.9269 10.5534 19.7119 10.5534 21.8747C10.5534 27.4838 13.5834 30.0441 19.1044 30.72C18.4603 31.4006 18.0281 32.2725 17.8828 33.2428C17.52 33.4022 17.1019 33.5522 16.6997 33.6122C15.6647 33.7688 14.5706 33.6122 14.0437 33.3C13.5169 32.9878 12.8916 32.2847 12.4228 31.6003C12.0272 31.0228 11.4562 30.3525 10.9387 30.1163C10.2553 29.8041 9.59061 29.6869 9.2203 29.745C8.84905 29.8041 8.67374 30.0769 8.75155 30.2728C8.82936 30.4678 9.20061 30.7613 9.59155 30.976C9.98249 31.1906 10.5881 31.7766 10.9397 32.3428C11.3316 32.9747 11.4084 33.3394 11.7403 34.0613C11.9737 34.5694 12.7725 35.2041 13.3416 35.5453C13.83 35.8388 14.8059 36.0056 15.8616 36.0535C16.2262 36.0703 17.0878 35.9635 17.8144 35.8603V39.376C17.8144 39.975 17.2659 40.4306 16.6978 40.3256C18.5212 40.9388 20.4684 41.25 22.5 41.25C24.5306 41.25 26.4778 40.9388 28.3031 40.3275C27.7359 40.4316 27.1875 39.976 27.1875 39.3769V33.9356C27.1875 32.6897 26.6934 31.5638 25.9003 30.7247C31.3809 30.0666 34.4475 27.5672 34.4475 21.8756ZM10.5366 30.6816C10.3922 30.6075 10.3144 30.4706 10.3631 30.3741C10.4119 30.2775 10.5694 30.2597 10.7137 30.3338C10.8581 30.4078 10.9359 30.5447 10.8872 30.6413C10.8384 30.7378 10.6809 30.7556 10.5366 30.6816ZM11.6728 31.3894C11.5969 31.4719 11.4337 31.4456 11.3081 31.3313C11.1825 31.2169 11.1422 31.0566 11.2181 30.9741C11.2941 30.8916 11.4572 30.9178 11.5828 31.0322C11.7084 31.1466 11.7487 31.3069 11.6728 31.3894ZM12.3797 32.5613C12.2841 32.6288 12.1219 32.566 12.0178 32.4206C11.9137 32.2753 11.9072 32.1019 12.0028 32.0344C12.0984 31.9669 12.2606 32.0297 12.3647 32.175C12.4678 32.3203 12.4753 32.4938 12.3797 32.5613ZM13.395 33.4435C13.3303 33.5485 13.1466 33.5531 12.9853 33.4547C12.8241 33.3563 12.7453 33.1913 12.81 33.0863C12.8747 32.9813 13.0584 32.9766 13.2197 33.075C13.3809 33.1735 13.4597 33.3385 13.395 33.4435ZM14.355 34.3069C14.1553 34.2825 14.0072 34.1578 14.0241 34.0285C14.04 33.8991 14.2153 33.8147 14.4141 33.8391C14.6137 33.8635 14.7619 33.9881 14.745 34.1175C14.7291 34.246 14.5547 34.3313 14.355 34.3069ZM15.9028 34.531C15.69 34.5188 15.5241 34.3969 15.5325 34.26C15.5409 34.1231 15.72 34.021 15.9328 34.0331C16.1456 34.0453 16.3116 34.1672 16.3031 34.3041C16.2947 34.4419 16.1156 34.5431 15.9028 34.531ZM17.3634 34.3847C17.1366 34.3847 16.9528 34.2666 16.9528 34.1213C16.9528 33.976 17.1366 33.8578 17.3634 33.8578C17.5903 33.8578 17.7741 33.976 17.7741 34.1213C17.7741 34.2666 17.5894 34.3847 17.3634 34.3847Z" fill="white"/>
<defs>
<linearGradient id="paint0_linear_308_25" x1="3.75" y1="22.0387" x2="41.25" y2="22.0387" gradientUnits="userSpaceOnUse">
<stop stop-color="#4C4C4C"/>
<stop offset="1" stop-color="#343434"/>
</linearGradient>
<linearGradient id="paint1_linear_308_25" x1="3.74999" y1="22.0388" x2="41.25" y2="22.0388" gradientUnits="userSpaceOnUse">
<stop stop-color="#4C4C4C"/>
<stop offset="1" stop-color="#343434"/>
</linearGradient>
<linearGradient id="paint2_linear_308_25" x1="3.75002" y1="22.0388" x2="41.25" y2="22.0388" gradientUnits="userSpaceOnUse">
<stop stop-color="#4C4C4C"/>
<stop offset="1" stop-color="#343434"/>
</linearGradient>
</defs>
</svg>
